<svg id="img-u-partner" xmlns="http://www.w3.org/2000/svg" viewBox="0 0 130 130"><path d="M65 114.9c-5.8 0-11.6-2.8-17.2-8.3L15 73.8C1.6 60.4 1.6 38.6 15 25.1 21.5 18.6 30.2 15 39.3 15c9.2 0 17.8 3.6 24.3 10.1l1.4 1.4 1.4-1.4C72.9 18.6 81.6 15 90.7 15c9.3 0 18.1 3.7 24.6 10.4 3.8 3.8 6.5 8.4 8 13.5.7 2.4-.6 4.9-3 5.7-2.4.7-4.9-.6-5.7-3-1.2-3.7-3.1-7-5.9-9.9-4.8-4.9-11.3-7.7-18.1-7.7-6.7 0-13.1 2.7-17.9 7.4L65 39.3l-7.8-7.8c-4.8-4.8-11.1-7.4-17.9-7.4-6.7 0-13.1 2.7-17.9 7.4-9.9 9.9-9.9 26 0 35.9l32.8 32.8c7.5 7.5 14.1 7.5 21.6 0L108.1 68c1.1-1.1 2.2-2.4 3.1-3.7.4-.5.6-1 1-1.6 1.3-2.1 4.1-2.9 6.2-1.6 2.1 1.3 2.9 4.1 1.6 6.2-.4.7-.8 1.4-1.3 2-1.2 1.8-2.6 3.4-4.2 5l-32.2 32.3c-5.6 5.6-11.5 8.3-17.3 8.3zM103.3 114.9c-2.5 0-4.5-2-4.5-4.5v-5.7c0-2.5 2-4.5 4.5-4.5s4.5 2 4.5 4.5v5.7c0 2.5-2 4.5-4.5 4.5zM120.6 114.8c-2.5 0-4.5-2-4.5-4.5V94.6c0-2.5 2-4.5 4.5-4.5s4.5 2 4.5 4.5v15.7c0 2.5-2 4.5-4.5 4.5z" fill="#557cf2"/><path d="M29.5 61.1c-1.2 0-2.3-.5-3.2-1.3-6.4-6.4-6.4-16.7 0-23.1 3.1-3.1 7.2-4.8 11.6-4.8s8.5 1.7 11.6 4.8c1.8 1.8 1.8 4.6 0 6.5-1.8 1.8-4.6 1.8-6.5 0-1.4-1.4-3.2-2.1-5.1-2.1s-3.8.7-5.1 2.1c-2.9 2.9-2.9 7.4 0 10.3 1.8 1.8 1.8 4.6 0 6.5-1 .7-2.1 1.1-3.3 1.1z" fill="#f26b7a"/><path d="M120.6 65.1h-17.2c-2.5 0-4.5-2-4.5-4.5s2-4.5 4.5-4.5h17.2c2.5 0 4.5 2 4.5 4.5s-2 4.5-4.5 4.5z" fill="#557cf2"/><path d="M120.6 82.2c-2.5 0-4.5-2-4.5-4.5V60.6c0-2.5 2-4.5 4.5-4.5s4.5 2 4.5 4.5v17.1c0 2.5-2 4.5-4.5 4.5z" fill="#557cf2"/></svg>